<svg width="100" height="100" viewBox="0 0 100 100" fill="none" xmlns="http://www.w3.org/2000/svg">
<path fill-rule="evenodd" clip-rule="evenodd" d="M96 71.5C96 59.1674 91.1009 47.34 82.3805 38.6195C73.66 29.8991 61.8326 25 49.5 25C39.713 25 30.2441 28.0854 22.3937 33.7175L22.973 34.4465C30.659 28.9439 39.9241 25.93 49.5 25.93C61.5859 25.93 73.1768 30.7311 81.7228 39.2771C89.7963 47.3506 94.5276 58.1415 95.0261 69.5C95.0553 70.1649 95.07 70.8317 95.07 71.5H95.0314H93.07H93.0314C93.0314 59.9547 88.4451 48.8824 80.2813 40.7186C72.1176 32.5549 61.0452 27.9686 49.5 27.9686C40.387 27.9686 31.5687 30.826 24.2428 36.0447L36.8925 51.965C40.6215 49.5584 44.9933 48.25 49.5 48.25C55.6663 48.25 61.58 50.6995 65.9402 55.0598C70.3005 59.42 72.75 65.3337 72.75 71.5H96ZM20.3438 39.175L33.0072 55.1125C28.6799 59.4676 26.25 65.3585 26.25 71.5L3 71.5C3 59.1674 7.8991 47.34 16.6195 38.6195C17.2294 38.0097 17.8544 37.4186 18.4937 36.8465L19.0733 37.5759C18.4608 38.1252 17.8619 38.6924 17.2771 39.2771C9.20368 47.3506 4.47242 58.1415 3.97385 69.5C3.94467 70.1648 3.92999 70.8317 3.92999 71.5H3.96859H5.92999H5.96859C5.96859 59.9547 10.5549 48.8824 18.7186 40.7186C19.2484 40.1889 19.7903 39.6743 20.3438 39.175Z" fill="#969696"/>
<path fill-rule="evenodd" clip-rule="evenodd" d="M18.4938 36.8466C13.9441 40.9174 10.2343 45.8501 7.58418 51.3677C4.57985 57.6227 3.01355 64.4709 3.00012 71.41L3.93011 71.4118C3.93134 70.773 3.94599 70.1356 3.97389 69.5C4.47246 58.1415 9.20372 47.3506 17.2772 39.2772C17.8619 38.6924 18.4609 38.1252 19.0733 37.5759L18.4938 36.8466ZM20.3439 39.175C19.7903 39.6743 19.2484 40.189 18.7187 40.7187C10.5748 48.8625 5.99096 59.9009 5.96871 71.4158L26.2501 71.455C26.2568 67.9855 27.0399 64.5614 28.5421 61.4338C29.6695 59.0866 31.1805 56.951 33.0073 55.1125L20.3439 39.175Z" fill="#6EB04F"/>
<path fill-rule="evenodd" clip-rule="evenodd" d="M47.8686 68.1559C48.3612 67.9151 48.9148 67.78 49.5 67.78C51.5545 67.78 53.22 69.4455 53.22 71.5C53.22 73.5545 51.5545 75.22 49.5 75.22C47.4455 75.22 45.78 73.5545 45.78 71.5C45.78 70.7584 45.997 70.0675 46.371 69.4873L17.0929 32.1268L18.6671 30.8932L47.8686 68.1559Z" fill="#4F4F4F"/>
</svg>
