<svg width="100" height="100" viewBox="0 0 100 100" fill="none" xmlns="http://www.w3.org/2000/svg">
<g clip-path="url(#clip0_72_192)">
<path fill-rule="evenodd" clip-rule="evenodd" d="M95.9308 71.5034C95.3077 60.0956 90.5008 49.2812 82.3805 41.1608C73.66 32.4404 61.8326 27.5413 49.5 27.5413C37.1674 27.5413 25.34 32.4404 16.6195 41.1608C7.8991 49.8812 3 61.7087 3 74.0413L3.93 74.0412C3.93 73.3729 3.94468 72.7061 3.97387 72.0412C4.47244 60.6827 9.20369 49.8919 17.2772 41.8184C25.8232 33.2724 37.4141 28.4713 49.5 28.4713C61.5859 28.4713 73.1768 33.2724 81.7229 41.8184C89.6689 49.7645 94.3775 60.343 94.9994 71.5041L95.9308 71.5034ZM72.6132 71.5224C72.0423 66.2825 69.7026 61.3634 65.9402 57.601C61.58 53.2408 55.6663 50.7913 49.5 50.7913C43.3337 50.7913 37.42 53.2408 33.0598 57.601C28.6995 61.9612 26.25 67.875 26.25 74.0413L5.9686 74.0412C5.96861 62.496 10.5549 51.4236 18.7187 43.2599C26.8824 35.0962 37.9548 30.5099 49.5 30.5099C61.0452 30.5099 72.1176 35.0962 80.2813 43.2599C87.8454 50.824 92.3383 60.8851 92.9576 71.5058L72.6132 71.5224Z" fill="#969696"/>
<path fill-rule="evenodd" clip-rule="evenodd" d="M95.9308 71.5034C95.3077 60.0956 90.5008 49.2812 82.3805 41.1608C73.66 32.4404 61.8326 27.5413 49.5 27.5413C37.1674 27.5413 25.34 32.4404 16.6195 41.1608C7.8991 49.8812 3 61.7087 3 74.0413L3.93 74.0413C3.93 73.373 3.94468 72.7061 3.97387 72.0413C4.47244 60.6828 9.20369 49.8919 17.2772 41.8184C25.8232 33.2724 37.4141 28.4713 49.5 28.4713C61.5859 28.4713 73.1768 33.2724 81.7229 41.8184C89.6689 49.7645 94.3774 60.343 94.9994 71.5041L95.9308 71.5034ZM72.6132 71.5224C72.0423 66.2825 69.7026 61.3634 65.9402 57.601C61.58 53.2408 55.6663 50.7913 49.5 50.7913C43.3337 50.7913 37.42 53.2408 33.0598 57.601C28.6995 61.9612 26.25 67.875 26.25 74.0413L5.9686 74.0413C5.96861 62.496 10.5549 51.4237 18.7187 43.2599C26.8824 35.0962 37.9548 30.5099 49.5 30.5099C61.0452 30.5099 72.1176 35.0962 80.2813 43.2599C87.8454 50.824 92.3383 60.8851 92.9576 71.5058L72.6132 71.5224Z" fill="#AF2929"/>
<path fill-rule="evenodd" clip-rule="evenodd" d="M53.3777 73.0381C53.0574 71.3093 51.5416 70 49.7201 70C47.6656 70 46.0001 71.6655 46.0001 73.72C46.0001 75.7745 47.6656 77.44 49.7201 77.44C51.3104 77.44 52.6676 76.4421 53.1997 75.0382L100.001 75L99.9992 73L53.3777 73.0381Z" fill="#4F4F4F"/>
</g>
<defs>
<clipPath id="clip0_72_192">
<rect width="100" height="100" fill="white"/>
</clipPath>
</defs>
</svg>
