<svg width="100" height="100" viewBox="0 0 100 100" fill="none" xmlns="http://www.w3.org/2000/svg">
<path fill-rule="evenodd" clip-rule="evenodd" d="M52 50.9259C57.247 51.4933 62.1733 53.8341 65.9402 57.601C70.3005 61.9612 72.75 67.8749 72.75 74.0412L93.0314 74.0412C93.0314 62.496 88.4451 51.4236 80.2813 43.2599C72.7089 35.6874 62.6337 31.1929 52 30.5816V50.9259ZM47 30.5816C36.3663 31.1929 26.2912 35.6874 18.7187 43.2599C10.5549 51.4236 5.96861 62.496 5.9686 74.0412L26.25 74.0412C26.25 67.8749 28.6995 61.9612 33.0598 57.601C36.8267 53.8341 41.753 51.4933 47 50.9259V30.5816ZM47 28.5398C35.8252 29.1533 25.2321 33.8634 17.2772 41.8183C9.20369 49.8918 4.47244 60.6827 3.97387 72.0412C3.94468 72.7061 3.93 73.3729 3.93 74.0412L3 74.0412C3 61.7086 7.8991 49.8812 16.6195 41.1607C24.7489 33.0314 35.5783 28.2229 47 27.6084V28.5398ZM52 28.5398C63.1748 29.1533 73.768 33.8634 81.7229 41.8184C89.7963 49.8918 94.5276 60.6827 95.0261 72.0412C95.0553 72.7061 95.07 73.3729 95.07 74.0412L96 74.0412C96 61.7086 91.1009 49.8812 82.3805 41.1607C74.2511 33.0314 63.4217 28.2229 52 27.6084V28.5398Z" fill="#969696"/>
<path fill-rule="evenodd" clip-rule="evenodd" d="M47 27.6085C41.748 27.8913 36.5757 29.0635 31.7052 31.0809C26.0636 33.4177 20.9375 36.8429 16.6195 41.1608C12.3016 45.4787 8.87644 50.6049 6.5396 56.2465C4.20276 61.8881 3 67.9348 3 74.0413L3.93 74.0413C3.93 73.373 3.94468 72.7062 3.97387 72.0413C4.47244 60.6828 9.20369 49.8919 17.2772 41.8184C25.2321 33.8635 35.8252 29.1534 47 28.5399V27.6085ZM47 30.5817C36.3663 31.193 26.2912 35.6875 18.7187 43.2599C10.5549 51.4237 5.96861 62.496 5.9686 74.0413L26.25 74.0413C26.25 70.988 26.8514 67.9647 28.0198 65.1439C29.1882 62.3231 30.9008 59.76 33.0598 57.601C35.2187 55.4421 37.7818 53.7295 40.6026 52.5611C42.6504 51.7129 44.8048 51.1635 47 50.9261V30.5817Z" fill="#CD871D"/>
<path fill-rule="evenodd" clip-rule="evenodd" d="M50.5 70.2115C50.8031 70.3318 51.0954 70.4942 51.3684 70.7C53.0092 71.9364 53.337 74.2689 52.1006 75.9097C50.8642 77.5505 48.5317 77.8783 46.8909 76.6418C45.2501 75.4054 44.9223 73.073 46.1588 71.4322C46.7524 70.6443 47.5988 70.1592 48.5 70.0046L48.5 21.9613L50.5 21.9613L50.5 70.2115Z" fill="#4F4F4F"/>
</svg>
