<svg width="100" height="100" viewBox="0 0 100 100" fill="none" xmlns="http://www.w3.org/2000/svg">
<path fill-rule="evenodd" clip-rule="evenodd" d="M49.9999 0C47.9236 0 46.2405 1.68311 46.2405 3.75942V20.0929C46.2405 22.1692 47.9236 23.8523 49.9999 23.8523C52.0762 23.8523 53.7593 22.1692 53.7593 20.0929V7.68287C75.4602 9.58573 92.4812 27.8051 92.4812 49.9999C92.4812 73.4617 73.4617 92.4812 49.9999 92.4812C26.5383 92.4812 7.51881 73.4617 7.51881 49.9999C7.51881 39.5198 11.309 29.9346 17.5978 22.5257C18.9414 20.9429 18.7474 18.5704 17.1645 17.2268C15.5817 15.8832 13.2093 16.0772 11.8656 17.6601C4.46671 26.3767 0 37.6715 0 49.9999C0 77.6143 22.3857 100 49.9999 100C77.6143 100 100 77.6143 100 49.9999C100 22.3857 77.6143 0 49.9999 0ZM44.2895 54.3664L25.3658 27.9879C24.8295 27.2404 24.9134 26.2146 25.5639 25.564C26.2143 24.9135 27.2402 24.8297 27.9876 25.3659L54.3662 44.2896C57.9871 46.8872 58.4141 52.1122 55.2631 55.2632C52.112 58.4143 46.8871 57.9872 44.2895 54.3664Z" fill="white"/>
</svg>
