<svg width="100" height="100" viewBox="0 0 100 100" fill="none" xmlns="http://www.w3.org/2000/svg">
<path fill-rule="evenodd" clip-rule="evenodd" d="M49.055 39.595C57.1653 39.595 63.74 33.0203 63.74 24.91C63.74 16.7997 57.1653 10.225 49.055 10.225C40.9447 10.225 34.37 16.7997 34.37 24.91C34.37 33.0203 40.9447 39.595 49.055 39.595ZM49.5 43.155C37.2117 43.155 27.25 53.1167 27.25 65.405V84.655C27.25 86.3119 28.5931 87.655 30.25 87.655H68.75C70.4069 87.655 71.75 86.3119 71.75 84.655V65.405C71.75 53.1167 61.7883 43.155 49.5 43.155Z" fill="white"/>
<path fill-rule="evenodd" clip-rule="evenodd" d="M30.1758 50.3831C26.9477 54.5298 25.025 59.7429 25.025 65.405V86.88C25.025 88.5368 26.3681 89.88 28.025 89.88H44.5V90.43C44.5 92.0868 43.1569 93.43 41.5 93.43H3C1.34315 93.43 0 92.0868 0 90.43V71.18C0 58.8917 9.96167 48.93 22.25 48.93C25.0419 48.93 27.7137 49.4442 30.1758 50.3831ZM32.6516 20.7853C32.3206 22.1055 32.1449 23.4872 32.1449 24.91C32.1449 28.8426 33.4873 32.4616 35.7389 35.3338C33.7941 41.1657 28.2905 45.37 21.805 45.37C13.6947 45.37 7.11997 38.7953 7.11997 30.685C7.11997 22.5747 13.6947 16 21.805 16C26.101 16 29.9662 17.8448 32.6516 20.7853Z" fill="white"/>
<path fill-rule="evenodd" clip-rule="evenodd" d="M55.5 89.88H70.975C72.6318 89.88 73.975 88.5369 73.975 86.88V65.405C73.975 60.1126 72.2952 55.2125 69.4396 51.2089C72.0072 50.1744 74.8121 49.605 77.75 49.605C90.0383 49.605 100 59.5667 100 71.855V91.105C100 92.7619 98.6569 94.105 97 94.105H58.5C56.8431 94.105 55.5 92.7619 55.5 91.105V89.88ZM65.9649 24.91C65.9649 28.4844 64.8559 31.7998 62.9632 34.5309C64.4127 41.117 70.2833 46.045 77.305 46.045C85.4153 46.045 91.99 39.4703 91.99 31.36C91.99 23.2497 85.4153 16.675 77.305 16.675C72.6219 16.675 68.4508 18.8672 65.7618 22.2813C65.8955 23.138 65.9649 24.0159 65.9649 24.91Z" fill="white"/>
</svg>
